<svg viewBox="0 0 32 32" fill="" xmlns="http://www.w3.org/2000/svg"><path d="M20,6V4.933C20,3.316,18.685,2,17.067,2h-2.135C13.315,2,12,3.316,12,4.933V6c0,2.206,1.794,4,4,4S20,8.206,20,6z M18,6   c0,1.103-0.897,2-2,2s-2-0.897-2-2V4.933C14,4.418,14.418,4,14.933,4h2.135C17.582,4,18,4.418,18,4.933V6z"/><path d="M19.438,20.221L19.692,18H21c0.553,0,1-0.448,1-1v-3.259C22,11.678,20.321,10,18.259,10H16h-2.259   C11.679,10,10,11.678,10,13.741V17c0,0.552,0.447,1,1,1h1.308l0.254,2.221c-3.329,0.437-5.569,1.438-6.3,2.779H5   c-0.553,0-1,0.448-1,1s0.447,1,1,1h1.258c1.009,1.89,4.868,2.842,8.742,2.981V29c0,0.552,0.447,1,1,1s1-0.448,1-1v-1.019   c3.874-0.139,7.734-1.091,8.742-2.981H27c0.553,0,1-0.448,1-1s-0.447-1-1-1h-1.262C25.007,21.659,22.768,20.658,19.438,20.221z    M12,16v-2.259C12,12.781,12.781,12,13.741,12h4.518C19.219,12,20,12.781,20,13.741V16h-1.2c-0.509,0-0.936,0.381-0.993,0.887   L17.107,23h-2.215l-0.699-6.113C14.136,16.381,13.709,16,13.2,16H12z M16,26c-5.249,0-8-1.486-8-2c0-0.253,1.212-1.316,4.789-1.792   l0.218,1.905C13.064,24.619,13.491,25,14,25h4c0.509,0,0.936-0.381,0.993-0.887l0.218-1.905C22.788,22.684,24,23.747,24,24   C24,24.514,21.249,26,16,26z"/></svg>