<svg viewBox="0 0 256 256" fill="" xml:space="preserve" xmlns="http://www.w3.org/2000/svg"><path d="M183,133.8L183,133.8c-32.1,0-58.3,26.1-58.3,58.3s26.1,58.3,58.3,58.3s58.3-26.1,58.3-58.3   C241.2,160,215.1,133.9,183,133.8z M183,240.6c-26.8,0-48.5-21.8-48.5-48.5c0-26.7,21.8-48.5,48.5-48.5c26.7,0,48.5,21.8,48.5,48.5   C231.5,218.8,209.7,240.6,183,240.6z"/><path d="M205.6,177.6l-17.9,7.3c-1.4-0.9-3-1.4-4.7-1.4h0c-4.8,0-8.6,3.9-8.6,8.6c0,4.8,3.9,8.6,8.6,8.6c4.1,0,7.6-2.9,8.4-6.8   l17.9-7.3c2.5-1,3.7-3.9,2.7-6.4C211,177.7,208.1,176.5,205.6,177.6z"/><path d="M63.2,63.2C79.1,63.2,92,50.3,92,34.4S79.1,5.6,63.2,5.6S34.5,18.5,34.5,34.4S47.4,63.2,63.2,63.2z M63.2,15.4   c10.5,0,19,8.5,19,19c0,10.5-8.5,19-19,19s-19-8.5-19-19C44.2,23.9,52.7,15.4,63.2,15.4z"/><path d="M97.6,107.9c-2.7-0.2-5,1.8-5.2,4.5l-4.1,59.7c0,0.2-0.1,0.4-0.1,0.5l-4.1,63c-0.2,2.8-2.5,4.9-5.2,4.9H47.6   c-2.8,0-5.1-2.2-5.3-4.9l-4.1-63c-0.1-2-1.5-3.8-3.4-4.3c-6-1.8-6-1.8-6.5-8.4l-3.7-66.8l0-0.7c7.4-2.2,14.7-4.5,22.1-6.9   c2.8-0.3,19.1-0.2,33.8,0.1l48.5,10.9c0.7,0.2,1.4,0.2,2.1,0l43.6-8.9c2.6-0.5,4.3-3.1,3.8-5.8c-0.5-2.6-3.1-4.3-5.8-3.8L130,86.8   L82.1,76c-0.3-0.1-0.7-0.1-1-0.1c-34.5-0.6-36.2-0.1-37.1,0.2c-7.4,2.4-14.8,4.7-22.3,7c-4.4,1.4-6.9,4.7-6.9,9.3   c0,0.4,0,1.1,0,1.2l3.7,65.9l0.1,1.1c0.7,10,2.4,13.2,10.1,16l3.9,59.7c0.5,7.9,7.1,14.1,15,14.1h31.3c7.9,0,14.5-6.2,15-14.1   l4.1-62.5c0-0.2,0-0.3,0.1-0.5l4.1-60.2C102.4,110.4,100.3,108.1,97.6,107.9z"/></svg>